<svg width="32" height="32" viewBox="0 0 32 32" fill="none" xmlns="http://www.w3.org/2000/svg">
<path d="M13.9869 2.97333L7.33354 5.46666C5.8002 6.04 4.54688 7.85333 4.54688 9.49333V19.4C4.54688 20.9733 5.58689 23.04 6.85356 23.9867L12.5869 28.2667C14.4669 29.68 17.5602 29.68 19.4402 28.2667L25.1735 23.9867C26.4402 23.04 27.4802 20.9733 27.4802 19.4V9.49333C27.4802 7.85333 26.2269 6.04 24.6935 5.46666L18.0402 2.97333C16.9069 2.56 15.0935 2.56 13.9869 2.97333Z" stroke="#85C414" stroke-width="1.5" stroke-linecap="round" stroke-linejoin="round"/>
<path d="M15.9998 20.6667C18.9454 20.6667 21.3332 18.2789 21.3332 15.3333C21.3332 12.3878 18.9454 10 15.9998 10C13.0543 10 10.6665 12.3878 10.6665 15.3333C10.6665 18.2789 13.0543 20.6667 15.9998 20.6667Z" stroke="#85C414" stroke-width="1.5" stroke-miterlimit="10" stroke-linecap="round" stroke-linejoin="round"/>
<path d="M16.3332 13.6667V14.9067C16.3332 15.3734 16.0932 15.8134 15.6799 16.0534L14.6665 16.6667" stroke="#85C414" stroke-width="1.5" stroke-miterlimit="10" stroke-linecap="round" stroke-linejoin="round"/>
</svg>
