<svg width="40" height="40" viewBox="0 0 40 40" fill="none" xmlns="http://www.w3.org/2000/svg">
<circle cx="20" cy="20" r="20" fill="#9E9D9D"/>
<path fill-rule="evenodd" clip-rule="evenodd" d="M12.7854 14.4033C12.9039 17.5073 13.8294 20.0268 15.4202 21.5765C16.1024 22.2409 16.9035 22.7252 17.6661 22.9339C17.7408 22.9544 17.8148 22.9757 17.8306 22.9813C17.8534 22.9894 17.8592 22.0833 17.8592 18.4957V14H19.6333H21.4074V16.5656V19.1312L21.4818 19.119C22.3768 18.9724 23.1252 18.6224 23.9484 17.9655C24.1079 17.8383 24.5821 17.3943 24.7503 17.2148C25.5255 16.3876 26.1546 15.3452 26.5171 14.2873L26.6153 14.0007L28.3956 14.0003L30.1759 14L30.165 14.0487C30.0278 14.6602 29.9777 14.8394 29.8246 15.2668C29.5594 16.0075 29.2208 16.6525 28.7181 17.3749C28.5329 17.641 28.2019 18.08 28.1605 18.1145C28.1534 18.1204 28.1071 18.174 28.0577 18.2336C27.7709 18.5792 27.1172 19.214 26.6954 19.5566C26.3167 19.8642 25.8813 20.1699 25.53 20.3748L25.3663 20.4703L25.5673 20.5671C26.2787 20.9098 27.0962 21.4417 27.6912 21.9491C27.9619 22.1799 28.5121 22.7047 28.7193 22.9299C29.6303 23.9195 30.3695 25.1535 30.816 26.43C30.9014 26.6742 30.9777 26.9007 30.9856 26.9335L31 26.993H29.0441H27.0882L27.0608 26.9118C26.9401 26.5541 26.5878 25.8169 26.3802 25.488C25.9649 24.8301 25.3986 24.1834 24.8646 23.7572C23.938 23.0177 22.9009 22.5621 21.7595 22.3931C21.6321 22.3743 21.5008 22.3589 21.4676 22.3589H21.4074V24.6794V27L20.7722 26.9855C18.3448 26.9299 16.5822 26.5039 14.7573 25.5316C14.4471 25.3663 13.8065 24.9444 13.5097 24.7099C13.453 24.6651 13.3552 24.588 13.2923 24.5385C13.0854 24.376 12.5247 23.8472 12.2766 23.5807C10.6399 21.8228 9.55982 19.3037 9.17157 16.3387C9.07476 15.5995 9.00005 14.6633 9.00002 14.1895L9 14H10.885H12.77L12.7854 14.4033Z" fill="#FEFEFE"/>
</svg>
