<svg width="32" height="32" viewBox="0 0 32 32" fill="none" xmlns="http://www.w3.org/2000/svg">
<path d="M28 9.33341V22.6667C28 26.6667 26 29.3334 21.3333 29.3334H10.6667C6 29.3334 4 26.6667 4 22.6667V9.33341C4 5.33341 6 2.66675 10.6667 2.66675H21.3333C26 2.66675 28 5.33341 28 9.33341Z" stroke="#FFBA08" stroke-width="1.5" stroke-miterlimit="10" stroke-linecap="round" stroke-linejoin="round"/>
<path d="M20.6668 2.66675V13.1467C20.6668 13.7334 19.9735 14.0267 19.5468 13.6401L16.4535 10.7868C16.2002 10.5468 15.8001 10.5468 15.5468 10.7868L12.4535 13.6401C12.0269 14.0267 11.3335 13.7334 11.3335 13.1467V2.66675H20.6668Z" stroke="#FFBA08" stroke-width="1.5" stroke-miterlimit="10" stroke-linecap="round" stroke-linejoin="round"/>
<path d="M17.6665 18.6667H23.3332" stroke="#FFBA08" stroke-width="1.5" stroke-miterlimit="10" stroke-linecap="round" stroke-linejoin="round"/>
<path d="M12 24H23.3333" stroke="#FFBA08" stroke-width="1.5" stroke-miterlimit="10" stroke-linecap="round" stroke-linejoin="round"/>
</svg>
