<svg width="64" height="64" viewBox="0 0 64 64" fill="none" xmlns="http://www.w3.org/2000/svg">
<circle cx="32" cy="32" r="32" fill="#019934"/>
<path d="M29.9869 18.9733L23.3335 21.4667C21.8002 22.04 20.5469 23.8533 20.5469 25.4933V35.4C20.5469 36.9733 21.5869 39.04 22.8536 39.9867L28.5869 44.2667C30.4669 45.68 33.5602 45.68 35.4402 44.2667L41.1735 39.9867C42.4402 39.04 43.4802 36.9733 43.4802 35.4V25.4933C43.4802 23.8533 42.2269 22.04 40.6935 21.4667L34.0402 18.9733C32.9069 18.56 31.0935 18.56 29.9869 18.9733Z" stroke="white" stroke-width="1.5" stroke-linecap="round" stroke-linejoin="round"/>
<path d="M31.9998 36.6667C34.9454 36.6667 37.3332 34.2789 37.3332 31.3333C37.3332 28.3878 34.9454 26 31.9998 26C29.0543 26 26.6665 28.3878 26.6665 31.3333C26.6665 34.2789 29.0543 36.6667 31.9998 36.6667Z" stroke="white" stroke-width="1.5" stroke-miterlimit="10" stroke-linecap="round" stroke-linejoin="round"/>
<path d="M32.3332 29.6667V30.9067C32.3332 31.3734 32.0932 31.8134 31.6799 32.0534L30.6665 32.6667" stroke="white" stroke-width="1.5" stroke-miterlimit="10" stroke-linecap="round" stroke-linejoin="round"/>
</svg>
