<svg width="24" height="24" viewBox="0 0 24 24" fill="none" xmlns="http://www.w3.org/2000/svg">
<rect x="0.899414" y="4.2002" width="22.2" height="5.7" rx="2.25" stroke="#9E9D9D" stroke-width="1.5"/>
<path d="M12.0811 4.06055L16.8066 1.22252C17.5168 0.796004 18.4184 1.03743 18.8205 1.76177L20.2514 4.33993" stroke="#9E9D9D" stroke-width="1.5"/>
<path d="M11.9209 4.06055L7.19535 1.22252C6.48516 0.796004 5.58353 1.03743 5.1815 1.76177L3.75055 4.33993" stroke="#9E9D9D" stroke-width="1.5"/>
<path d="M9 9.90015H15V16.5545C15 16.9348 14.5923 17.1759 14.259 16.9926L12.4819 16.0152C12.1818 15.8502 11.8182 15.8502 11.5181 16.0152L9.74095 16.9926C9.40773 17.1759 9 16.9348 9 16.5545V9.90015Z" stroke="#9E9D9D" stroke-width="1.5" stroke-linejoin="round"/>
<path d="M2.39941 9.90015H21.5994V20.1001C21.5994 21.757 20.2563 23.1001 18.5994 23.1001H5.39941C3.74256 23.1001 2.39941 21.757 2.39941 20.1001V9.90015Z" stroke="#9E9D9D" stroke-width="1.5"/>
</svg>
