<svg width="32" height="32" viewBox="0 0 32 32" fill="none" xmlns="http://www.w3.org/2000/svg">
<path d="M18.6665 8.26668V13.3334C14.9465 13.4001 13.3998 14.9467 13.3332 18.6667H8.26651C4.2665 18.6667 2.6665 17.0668 2.6665 13.0668V8.26668C2.6665 4.26668 4.2665 2.66675 8.26651 2.66675H13.0665C17.0665 2.66675 18.6665 4.26668 18.6665 8.26668Z" stroke="#5314C4" stroke-width="1.5" stroke-linecap="round" stroke-linejoin="round"/>
<path d="M9.27977 7.82669C8.5731 7.34669 7.63977 7.34672 6.93311 7.85338" stroke="#5314C4" stroke-width="1.5" stroke-miterlimit="10" stroke-linecap="round" stroke-linejoin="round"/>
<path d="M14.6133 7.82669C13.9066 7.34669 12.9733 7.34672 12.2666 7.85338" stroke="#5314C4" stroke-width="1.5" stroke-miterlimit="10" stroke-linecap="round" stroke-linejoin="round"/>
<path d="M10.8802 15.2267H7.7869C7.3869 15.2267 7.06689 14.9067 7.06689 14.5067C7.06689 12.52 8.68023 10.9067 10.6669 10.9067C11.5202 10.9067 12.3069 11.2 12.9202 11.6934" stroke="#5314C4" stroke-width="1.5" stroke-miterlimit="10" stroke-linecap="round" stroke-linejoin="round"/>
<path d="M29.3335 18.9332V23.7333C29.3335 27.7333 27.7335 29.3333 23.7335 29.3333H18.9335C14.9335 29.3333 13.3335 27.7333 13.3335 23.7333V18.6666C13.4002 14.9466 14.9468 13.3999 18.6668 13.3333H23.7335C27.7335 13.3333 29.3335 14.9332 29.3335 18.9332Z" stroke="#5314C4" stroke-width="1.5" stroke-linecap="round" stroke-linejoin="round"/>
<path d="M19.9468 18.16C19.2401 18.64 18.3068 18.64 17.6001 18.1333" stroke="#5314C4" stroke-width="1.5" stroke-miterlimit="10" stroke-linecap="round" stroke-linejoin="round"/>
<path d="M25.2798 18.16C24.5731 18.64 23.6398 18.64 22.9331 18.1333" stroke="#5314C4" stroke-width="1.5" stroke-miterlimit="10" stroke-linecap="round" stroke-linejoin="round"/>
<path d="M18.4534 21.5735H24.2134C24.6134 21.5735 24.9334 21.8934 24.9334 22.2934C24.9334 24.28 23.3201 25.8935 21.3334 25.8935C19.3467 25.8935 17.7334 24.28 17.7334 22.2934C17.7334 21.8934 18.0534 21.5735 18.4534 21.5735Z" stroke="#5314C4" stroke-width="1.5" stroke-miterlimit="10" stroke-linecap="round" stroke-linejoin="round"/>
</svg>
