<svg width="32" height="14" viewBox="0 0 32 14" fill="none" xmlns="http://www.w3.org/2000/svg">
<path d="M0 8.74229e-08H32V2H0V8.74229e-08Z" fill="#9E9D9D"/>
<path d="M0 12H32V14H0V12Z" fill="#9E9D9D"/>
<path d="M2 8.74229e-08L2 14H0V8.74229e-08H2Z" fill="#9E9D9D"/>
<path d="M32 8.74229e-08V14H30V0L32 8.74229e-08Z" fill="#9E9D9D"/>
<path d="M14 8.74229e-08L14 14H12L12 0L14 8.74229e-08Z" fill="#9E9D9D"/>
<path d="M26 8.74229e-08V14H24V0L26 8.74229e-08Z" fill="#9E9D9D"/>
<path d="M8 8.74229e-08L8 14H6L6 0L8 8.74229e-08Z" fill="#9E9D9D"/>
<path d="M20 8.74229e-08V14H18V0L20 8.74229e-08Z" fill="#9E9D9D"/>
</svg>
